# xmcd
#
# Track frame offsets:
#	150
#	20133
#	36918
#	55362
#	71702
#	89842
#	104887
#	121579
#	136430
#	153464
#	169772
#	191165
#	210922
#	228094
#	246689
#	263481
#	279913
#	295289
#	311786
#	325167
#	340126
#
# Disc length: 4760 seconds
#
# Revision: 1
# Processed by: cddbd v1.5.2PL0 Copyright (c) Steve Scherf et al.
# Submitted via: audiograbber 1.83.01
#
DISCID=45129615
DTITLE=Various Artist - First Ladies of Country - cd2
DYEAR=2015
DGENRE=Country
TTITLE0=LeAnn Rimes - How Do I Live
TTITLE1=Eva Cassidy - Songbird
TTITLE2=Trisha Yearwood - She's In Love With The Boy
TTITLE3=Sara Evans - No Place That Far
TTITLE4=Lee Ann Womack - I Hope You Dance
TTITLE5=Carrie Underwood - Before He Cheats
TTITLE6=Gretchen Wilson - Redneck Woman
TTITLE7=Elizabeth Cook - Sometimes It Takes Balls To Be A Woman
TTITLE8=Kellie Pickler - Best Days Of Your Life
TTITLE9=Heidi Newfield - Johnny And June
TTITLE10=Alison Krauss - Simple Love
TTITLE11=Gretchen Peters -  Hello Cruel World
TTITLE12=Wonderland - Need You Now
TTITLE13=Sugarland - Stuck Like Glue
TTITLE14=Band Perry (The) - If I Die Young
TTITLE15=Kelly Clarkson - Mr. Know It All
TTITLE16=Pistol Annies - Hush Hush
TTITLE17=Maddie And Tae - Girl In A Country Song
TTITLE18=Miranda Lambert - Mamas Broken Heart
TTITLE19=Kacey Musgraves - Follow Your Arrow
TTITLE20=First Aid Kit - Master Pretender
EXTD=
EXTT0=
EXTT1=
EXTT2=
EXTT3=
EXTT4=
EXTT5=
EXTT6=
EXTT7=
EXTT8=
EXTT9=
EXTT10=
EXTT11=
EXTT12=
EXTT13=
EXTT14=
EXTT15=
EXTT16=
EXTT17=
EXTT18=
EXTT19=
EXTT20=
PLAYORDER=
